<?xml version="1.0" standalone="no"?><!DOCTYPE svg PUBLIC "-//W3C//DTD SVG 1.1//EN" "http://www.w3.org/Graphics/SVG/1.1/DTD/svg11.dtd"><svg t="1752984329006" class="icon" viewBox="0 0 1024 1024" version="1.1" xmlns="http://www.w3.org/2000/svg" p-id="26522" xmlns:xlink="http://www.w3.org/1999/xlink" width="200" height="200"><path d="M1001.6768 194.9184c29.696 169.0624 29.696 462.592 0 635.0848-20.5824 122.2144-46.848 150.784-171.3664 172.4928-171.3152 27.392-460.288 29.696-635.0848-1.1776-123.3408-21.6576-149.6064-46.7968-171.3152-171.3152-30.8224-170.1888-30.8224-461.4656 0-635.0848C45.6192 72.704 70.7584 45.2608 195.2256 23.6032c170.24-30.8736 462.6432-29.696 635.0848 1.1264 123.392 21.7088 149.6576 46.848 171.3664 170.1888zM264.704 766.72c14.1824 2.048 32.4608 2.048 50.7904 2.048h358.5536c26.4704 0 45.7216 0 65.024-2.4064a183.1936 183.1936 0 0 0 120.32-52.9408c77.0048-72.192 77.0048-192.512 4.8128-267.1104a183.3984 183.3984 0 0 0-134.8096-57.7536c-45.7216 0-84.224 16.896-120.32 43.3152a722.944 722.944 0 0 0-50.5344 45.7216c-8.0896 8.0896-139.4176 136.192-224.3584 218.9824H293.888c-43.3152-2.4064-69.7856-16.8448-84.224-31.232a116.9408 116.9408 0 0 1-2.4064-163.6864 114.5856 114.5856 0 0 1 81.8176-33.6896c19.2512 0 48.128 4.8128 79.4112 31.2832 14.4384 12.032 48.128 40.96 62.5664 52.9408h2.4064l50.5344-50.5344v-2.4064c-26.4704-24.064-60.16-55.296-81.8176-69.7856-33.6896-24.064-72.192-38.5024-113.1008-38.5024a183.3984 183.3984 0 0 0-134.7584 57.7536 192.512 192.512 0 0 0 2.4064 269.5168c31.2832 28.8768 67.3792 45.7216 105.8816 50.5344l2.1504-2.048z m544.1536-103.8336c-14.4896 14.4384-40.96 31.2832-84.2752 31.2832H443.0848c84.224-81.8176 156.416-151.552 163.6352-158.8224 7.2192-7.168 24.064-24.064 38.5024-36.096 31.2832-28.8768 60.16-33.6896 81.8176-33.6896 31.2832 0 60.16 14.4384 81.8688 33.6896a114.7392 114.7392 0 0 1 0 163.6352zM748.6976 347.648a255.8464 255.8464 0 0 0-240.64-168.448c-127.488 0-231.0144 93.8496-250.2656 214.1696 9.6256-2.4064 19.2512-4.8128 31.2832-4.8128 14.4384 0 28.8768 2.4064 43.3152 4.8128A178.3296 178.3296 0 0 1 508.0576 251.392c72.192 0 134.7584 43.3152 163.6352 105.8816 0 0 2.4064 2.4064 2.4064 0 21.6576-4.8128 48.128-9.6256 74.5984-9.6256 0 2.4064 0 0 0 0z" fill="#0D7EF2" p-id="26523"></path></svg>