<?xml version="1.0" standalone="no"?><!DOCTYPE svg PUBLIC "-//W3C//DTD SVG 1.1//EN" "http://www.w3.org/Graphics/SVG/1.1/DTD/svg11.dtd"><svg t="1752985257496" class="icon" viewBox="0 0 1024 1024" version="1.1" xmlns="http://www.w3.org/2000/svg" p-id="17696" xmlns:xlink="http://www.w3.org/1999/xlink" width="200" height="200"><path d="M843.094827 392.170667c-28.138667-78.250667-106.346667-125.312-187.648-112a253.653333 253.653333 0 0 0-361.941334-23.04 262.933333 262.933333 0 0 0-61.354666 82.346666h-0.512C105.345493 339.498667 2.60416 441.813333 0.04416 568.661333c-2.56 130.944 106.346667 238.357333 236.202667 238.357334H627.841493a4.053333 4.053333 0 0 0 4.096-4.096c0-1.024-0.512-2.56-1.536-3.072-25.557333-23.530667-45.504-52.181333-59.818666-83.882667-2.048-4.608-6.122667-7.168-11.242667-7.68H235.222827c-74.133333 0-137.536-61.376-137.024-136.042667 1.024-74.666667 61.866667-135.04 135.466666-134.016a136.938667 136.938667 0 0 1 71.594667 21.994667 162.624 162.624 0 0 1 26.069333-98.197333 157.141333 157.141333 0 0 1 220.352-44.501334 161.621333 161.621333 0 0 1 62.357334 82.346667c27.605333-38.869333 80.789333-47.061333 119.125333-18.922667 6.122667 4.608 11.242667 9.706667 15.850667 15.36a86.506667 86.506667 0 0 1 9.706666 94.08c58.794667-32.213333 131.904-9.706667 163.605334 49.621334 31.68 59.84 9.706667 134.016-49.066667 166.229333-58.816 32.213333-131.925333 9.728-163.626667-49.6a121.536 121.536 0 0 1-14.293333-58.304h60.821333c2.048 2.026667 5.12 1.514667 6.656 0 2.048-2.048 1.536-5.12 0-7.168-1.024-1.024-2.048-1.536-3.072-1.536l-50.602666-48.597333-60.330667-57.792a12.032 12.032 0 0 0-16.874667 0l-16.853333 16.362666-94.08 90.026667a4.949333 4.949333 0 0 0 0 7.168 4.650667 4.650667 0 0 0 3.562667 1.536h61.354666c0 4.074667-0.512 8.170667-0.512 12.266667 0 127.36 105.813333 229.141333 233.642667 220.949333 108.885333-7.146667 197.333333-96.149333 204.501333-206.122667 7.146667-113.024-70.549333-213.290667-180.48-233.237333" fill="#3C78F0" p-id="17697"></path></svg>