<?xml version="1.0" standalone="no"?><!DOCTYPE svg PUBLIC "-//W3C//DTD SVG 1.1//EN" "http://www.w3.org/Graphics/SVG/1.1/DTD/svg11.dtd"><svg t="1752987943393" class="icon" viewBox="0 0 1024 1024" version="1.1" xmlns="http://www.w3.org/2000/svg" p-id="12899" xmlns:xlink="http://www.w3.org/1999/xlink" width="200" height="200"><path d="M853.205333 403.712a169.6 169.6 0 0 0-191.616-104.106667A260.864 260.864 0 0 0 467.626667 213.333333a261.76 261.76 0 0 0-232.362667 141.952h-0.426667C105.258667 355.285333 0 461.184 0 591.957333c0 130.688 105.216 236.714667 234.88 236.714667h368.768c3.157333 0 4.693333-3.84 2.389333-6.058667a277.589333 277.589333 0 0 1-60.544-89.088 5.802667 5.802667 0 0 0-5.290666-3.584H234.965333a137.045333 137.045333 0 0 1-131.968-100.437333 138.666667 138.666667 0 0 1 56.96-153.173333 135.722667 135.722667 0 0 1 139.861334-5.802667c4.693333-82.432 67.285333-152.32 151.466666-162.346667 78.037333-9.301333 149.888 35.584 178.858667 105.088h0.042667a85.162667 85.162667 0 0 1 106.24-18.432c35.413333 20.053333 52.053333 62.08 40.021333 100.949334a121.813333 121.813333 0 0 1 144.469333 70.357333c23.722667 55.850667 1.792 122.709333-50.133333 153.642667-59.477333 35.413333-135.68 14.08-168.746667-46.464a122.453333 122.453333 0 0 1-13.866666-42.24h60.544c3.968 0 5.973333-4.821333 3.157333-7.68l-116.693333-117.504a5.546667 5.546667 0 0 0-7.893334 0l-116.565333 117.504c-2.773333 2.858667-0.810667 7.68 3.157333 7.68h57.344c0.554667 28.8 6.570667 56.277333 17.024 81.408A226.432 226.432 0 0 0 797.482667 853.333333C922.666667 853.333333 1024 751.104 1024 625.024a227.968 227.968 0 0 0-170.794667-221.312z" fill="#DF0629" p-id="12900"></path></svg>