<?xml version="1.0" standalone="no"?><!DOCTYPE svg PUBLIC "-//W3C//DTD SVG 1.1//EN" "http://www.w3.org/Graphics/SVG/1.1/DTD/svg11.dtd"><svg t="1752984031097" class="icon" viewBox="0 0 1024 1024" version="1.1" xmlns="http://www.w3.org/2000/svg" p-id="15198" xmlns:xlink="http://www.w3.org/1999/xlink" width="200" height="200"><path d="M97.938286 0A97.938286 97.938286 0 0 0 0 97.938286v828.123428A97.938286 97.938286 0 0 0 97.938286 1024h828.123428A97.938286 97.938286 0 0 0 1024 926.061714V97.938286A97.938286 97.938286 0 0 0 926.061714 0H97.938286z" fill="#0670FF" p-id="15199"></path><path d="M826.148571 193.572571a12.617143 12.617143 0 0 0-13.312-1.865142l-617.325714 267.849142c-8.96 3.84-8.704 16.676571 0.512 20.918858l216.685714 101.668571L826.148571 193.609143zM828.781714 196.498286L432.64 593.700571l108.909714 232.777143c4.242286 9.069714 17.005714 9.325714 20.845715 0.475429L829.988571 208.822857a12.507429 12.507429 0 0 0-1.170285-12.324571" fill="#FFFFFF" p-id="15200"></path><path d="M828.781714 196.498286s-1.901714-2.486857-2.742857-2.962286c-0.841143-0.512-1.828571 1.28-1.828571 1.28l-0.365715 0.914286 2.889143 2.852571 2.048-2.084571z" fill="#FFFFFF" p-id="15201"></path></svg>