<?xml version="1.0" standalone="no"?><!DOCTYPE svg PUBLIC "-//W3C//DTD SVG 1.1//EN" "http://www.w3.org/Graphics/SVG/1.1/DTD/svg11.dtd"><svg t="1753002816993" class="icon" viewBox="0 0 1024 1024" version="1.1" xmlns="http://www.w3.org/2000/svg" p-id="8517" xmlns:xlink="http://www.w3.org/1999/xlink" width="200" height="200"><path d="M684.672 591.19c3.157-26.155 5.547-52.267 5.547-79.19s-2.39-53.077-5.547-79.19h133.845c6.315 25.345 10.283 51.84 10.283 79.19a326.4 326.4 0 0 1-10.283 79.19M614.571 811.35c23.765-43.947 41.984-91.478 54.656-140.971h116.821a317.952 317.952 0 0 1-171.477 140.97m-9.899-220.16H419.413c-3.968-26.154-6.357-52.266-6.357-79.189s2.39-53.461 6.357-79.19h185.302c3.584 25.729 6.357 52.267 6.357 79.19s-2.773 53.035-6.357 79.19m-92.63 235.989c-32.853-47.488-59.434-100.182-75.648-156.8h151.254c-16.214 56.618-42.752 109.312-75.648 156.8m-158.379-473.6H238.037a313.728 313.728 0 0 1 171.094-140.971c-23.766 43.947-41.6 91.477-55.467 140.97m-115.627 316.8h115.627c13.867 49.494 31.701 97.025 55.467 140.971a317.141 317.141 0 0 1-171.094-140.97m-32.469-79.19A326.4 326.4 0 0 1 195.243 512c0-27.307 3.968-53.888 10.282-79.232h133.846c-3.158 26.155-5.547 52.31-5.547 79.232s2.39 53.035 5.547 79.19M512 196.394c32.853 47.488 59.435 100.565 75.648 157.184H436.395c16.213-56.619 42.752-109.654 75.648-157.184m274.005 157.184H669.227a619.648 619.648 0 0 0-54.614-140.971 316.245 316.245 0 0 1 171.435 140.97M512 116.054c-218.965 0-395.947 178.176-395.947 395.947A395.947 395.947 0 0 0 512 908.032 395.947 395.947 0 0 0 907.99 512a395.947 395.947 0 0 0-395.947-395.99z" fill="#015C61" p-id="8518"></path></svg>