<?xml version="1.0" standalone="no"?><!DOCTYPE svg PUBLIC "-//W3C//DTD SVG 1.1//EN" "http://www.w3.org/Graphics/SVG/1.1/DTD/svg11.dtd"><svg t="1752981802236" class="icon" viewBox="0 0 1024 1024" version="1.1" xmlns="http://www.w3.org/2000/svg" p-id="26175" xmlns:xlink="http://www.w3.org/1999/xlink" width="200" height="200"><path d="M117.849 5.216h788.336a112.633 112.633 0 0 1 112.634 112.633v788.336a112.633 112.633 0 0 1-112.64 112.634H117.856a112.633 112.633 0 0 1-112.64-112.64V117.856a112.633 112.633 0 0 1 112.64-112.64zM513.14 622.039c-54.32 0.376-98.789-35.54-101.8-102.4-2.784-62.211 51.214-104.216 103.193-105.451 59.733-1.42 95.464 67.215 95.464 67.215l153.968-57.235s-63.317-165.526-234.673-165.526c-160.174 0-270.65 111.998-270.65 263.844 0 134.99 104.298 270.049 266.943 263.844 178.647-6.84 239.841-165.274 239.841-165.274l-157.9-52.518s-32.243 53.528-94.352 53.528l-0.034-0.027z" fill="#3AAC54" p-id="26176"></path></svg>