<?xml version="1.0" standalone="no"?><!DOCTYPE svg PUBLIC "-//W3C//DTD SVG 1.1//EN" "http://www.w3.org/Graphics/SVG/1.1/DTD/svg11.dtd"><svg t="1752744412673" class="icon" viewBox="0 0 1024 1024" version="1.1" xmlns="http://www.w3.org/2000/svg" p-id="1334" xmlns:xlink="http://www.w3.org/1999/xlink" width="200" height="200"><path d="M427.79989333 744.41272888L427.79989333 744.41272888 427.79989333 618.35036444 301.73297778 618.35036444c-69.61720889 0-126.06236445 56.44515555-126.06236445 126.06236444 0 69.62631111 56.44515555 126.06236445 126.06236445 126.06236445C371.35587555 870.47509333 427.79989333 814.03904 427.79989333 744.41272888L427.79989333 744.41272888 427.79989333 744.41272888 427.79989333 744.41272888zM490.83164445 744.41272888c0 104.43548445-84.66318222 189.09297778-189.09866667 189.09297778C197.30204445 933.50570666 112.64 848.84821333 112.64 744.41272888c0-104.43548445 84.66204445-189.09297778 189.09297778-189.09297777l126.06691555 0 63.03175112 0 0 63.03061333L490.83164445 744.41272888 490.83164445 744.41272888 490.83164445 744.41272888zM595.88039111 744.41272888L595.88039111 618.35036444 721.94275555 618.35036444c69.62631111 0 126.06122667 56.44515555 126.06122667 126.06236444 0 69.62631111-56.43491555 126.06236445-126.06122667 126.06236445C652.32440889 870.47509333 595.88039111 814.03904 595.88039111 744.41272888L595.88039111 744.41272888 595.88039111 744.41272888zM532.84864 744.41272888c0 104.43548445 84.66204445 189.09297778 189.09411555 189.09297778 104.43548445 0 189.09752889-84.65749333 189.0975289-189.09297778 0-104.43548445-84.66204445-189.09297778-189.0975289-189.09297777L595.88039111 555.31975111l-63.03175111 0 0 63.03061333L532.84864 744.41272888 532.84864 744.41272888 532.84864 744.41272888zM427.79989333 324.20408888l0 126.06691556L301.73297778 450.27100444c-69.61720889 0-126.06236445-56.44515555-126.06236445-126.06691556 0-69.61834667 56.44515555-126.06236445 126.06236445-126.06236444C371.35587555 198.14172444 427.79989333 254.58574222 427.79989333 324.20408888L427.79989333 324.20408888 427.79989333 324.20408888zM490.83164445 324.20408888c0-104.43093333-84.66318222-189.09297778-189.09866667-189.09297777C197.30204445 135.11111111 112.64 219.77315555 112.64 324.20408888c0 104.43548445 84.66204445 189.09752889 189.09297778 189.0975289l126.06691555 0 63.03175112 0 0-63.03061334L490.83164445 324.20408888 490.83164445 324.20408888 490.83164445 324.20408888zM595.88039111 324.20408888l0 126.06691556L721.94275555 450.27100444c69.62631111 0 126.06122667-56.44515555 126.06122667-126.06691556 0-69.61834667-56.43491555-126.06236445-126.06122667-126.06236444C652.32440889 198.14172444 595.88039111 254.58574222 595.88039111 324.20408888L595.88039111 324.20408888 595.88039111 324.20408888zM532.84864 324.20408888L532.84864 324.20408888C532.84864 219.77315555 617.51068445 135.11111111 721.94275555 135.11111111c104.43548445 0 189.09752889 84.66204445 189.0975289 189.09297777 0 104.43548445-84.66204445 189.09752889-189.0975289 189.0975289L595.88039111 513.30161778l-63.03175111 0 0-63.03061334L532.84864 324.20408888 532.84864 324.20408888 532.84864 324.20408888zM532.84864 324.20408888" p-id="1335"></path></svg>