<?xml version="1.0" standalone="no"?><!DOCTYPE svg PUBLIC "-//W3C//DTD SVG 1.1//EN" "http://www.w3.org/Graphics/SVG/1.1/DTD/svg11.dtd"><svg t="1752987545603" class="icon" viewBox="0 0 1024 1024" version="1.1" xmlns="http://www.w3.org/2000/svg" p-id="2961" xmlns:xlink="http://www.w3.org/1999/xlink" width="200" height="200"><path d="M0 0.000512m204.799898 0l614.399692 0q204.799898 0 204.799898 204.799898l0 614.399692q0 204.799898-204.799898 204.799898l-614.399692 0q-204.799898 0-204.799898-204.799898l0-614.399692q0-204.799898 204.799898-204.799898Z" fill="#FFE0E2" p-id="2962"></path><path d="M511.590144 495.616264l38.911981-38.143981a53.708773 53.708773 0 0 0 0-76.799961 55.654372 55.654372 0 0 0-77.772761 0 53.708773 53.708773 0 0 0 0 76.799961l38.91198 38.092781z" fill="#E70E1F" p-id="2963"></path><path d="M319.64144 768.000128h0.1536-0.1536z" fill="#E70E1F" p-id="2964"></path><path d="M319.69264 768.000128h0.1536c42.495979 0 85.043157-15.974392 117.606341-47.923176l38.860781-38.092781-44.236778-43.366378-38.860781 39.27038a105.471947 105.471947 0 0 1-147.097526 0 100.50555 100.50555 0 0 1 0-144.230328 105.471947 105.471947 0 0 1 147.097526 0l38.860781 38.143981 44.236778-43.417578-38.860781-38.092781a100.65915 100.65915 0 0 1 1.1776-143.001529 105.369547 105.369547 0 0 1 147.097526 0c19.14879 18.739191 29.337585 42.188779 30.515185 66.201567a219.90389 219.90389 0 0 1 60.979169-16.947191 161.382319 161.382319 0 0 0-47.206376-92.671954A166.195117 166.195117 0 0 0 512.767744 256.000384c-42.547179 0-85.145557 15.974392-117.759942 47.923176a161.535919 161.535919 0 0 0-46.643176 140.64633 168.243116 168.243116 0 0 0-145.919927 45.158377A159.74392 159.74392 0 0 0 153.599923 604.51861v0.3072a161.279919 161.279919 0 0 0 48.844776 115.199942c32.307184 31.999984 74.751963 47.974376 117.247941 47.974376" fill="#E70E1F" p-id="2965"></path><path d="M555.878122 603.44341l-44.236778-43.417578-44.287978 43.417578 44.287978 43.366379zM358.553421 642.713791l38.86078-38.092781-38.91198-38.143981a56.934372 56.934372 0 0 0-78.335961-0.512 53.759973 53.759973 0 0 0 0 76.799962c21.503989 21.043189 56.831972 21.043189 78.335961 0" fill="#E70E1F" p-id="2966"></path><path d="M743.014028 643.89139a53.759973 53.759973 0 0 0 0-76.799962 56.371172 56.371172 0 0 0-78.33596 0l-38.860781 38.092781 38.911981 38.143981c21.503989 21.094389 56.831972 21.094389 78.33596 0.512" fill="#FF7782" p-id="2967"></path><path d="M704.716448 441.190691h-0.0512C662.118069 441.190691 619.51969 457.165083 586.956507 489.113867L548.095726 527.206648l44.236778 43.366379 38.86078-38.092781a105.471947 105.471947 0 0 1 147.097527 0 100.45435 100.45435 0 0 1 0 144.179128 105.369547 105.369547 0 0 1-147.097527 0l-38.86078-38.092781L548.095726 681.932971l38.860781 38.143981a166.297517 166.297517 0 0 0 117.247941 47.871976h0.0512c42.547179 0 85.145557-15.974392 117.708741-47.871976a160.56312 160.56312 0 0 0 48.435176-114.943943v-0.204799A163.327918 163.327918 0 0 0 821.964389 489.113867 166.195117 166.195117 0 0 0 704.716448 441.190691" fill="#FF7782" p-id="2968"></path></svg>