<?xml version="1.0" standalone="no"?><!DOCTYPE svg PUBLIC "-//W3C//DTD SVG 1.1//EN" "http://www.w3.org/Graphics/SVG/1.1/DTD/svg11.dtd"><svg t="1753003048308" class="icon" viewBox="0 0 1024 1024" version="1.1" xmlns="http://www.w3.org/2000/svg" p-id="14498" xmlns:xlink="http://www.w3.org/1999/xlink" width="200" height="200"><path d="M1024.0064 305.92h-279.04v40.96h114.88V704h48.96V346.88H1024.0064V305.92z m-326.08 40.96V305.92h-213.12V704h213.12v-40.96h-163.84v-138.88h145.92v-41.92h-145.92v-135.04h163.84zM69.1264 685.12c0 9.28-3.2 17.28-9.92 24s-15.04 9.92-24.96 9.92c-9.28 0-17.28-3.2-24-9.92a31.744 31.744 0 0 1-10.24-24c0-9.92 3.2-18.24 9.92-24.96s14.72-9.92 24-9.92c9.92 0 18.24 3.2 24.96 9.92s10.24 14.72 10.24 24.96zM429.1264 305.92h-48.96v313.92l-224-313.92H106.8864V704h48.96v-313.92L381.1264 704h48V305.92z" fill="#008CDB" p-id="14499"></path></svg>