<?xml version="1.0" standalone="no"?><!DOCTYPE svg PUBLIC "-//W3C//DTD SVG 1.1//EN" "http://www.w3.org/Graphics/SVG/1.1/DTD/svg11.dtd"><svg t="1753002604104" class="icon" viewBox="0 0 1024 1024" version="1.1" xmlns="http://www.w3.org/2000/svg" p-id="2374" xmlns:xlink="http://www.w3.org/1999/xlink" width="200" height="200"><path d="M564.778667 128v87.552l-20.906667-12.117333L371.2 501.717333a56.96 56.96 0 0 0 20.949333 75.008 56.96 56.96 0 0 0 75.008-20.906666l36.48-64.554667 24.32-41.898667c24.277333-43.562667 82.090667-59.093333 125.653334-33.109333 43.562667 24.32 59.093333 82.133333 33.109333 125.696l-173.056 298.325333 20.949333 12.16L459.648 896v-85.461333l20.906667 12.16 136.192-233.813334 36.437333-64.512a56.96 56.96 0 0 0-20.906667-75.008 56.96 56.96 0 0 0-75.008 20.906667l-61.184 104.789333c-24.32 43.562667-82.133333 59.093333-125.696 33.109334-43.562667-24.32-59.093333-82.133333-33.109333-125.696l174.336-297.813334-22.229333-12.672L564.778667 128zM442.453333 244.906667l-36.864 62.848a231.338667 231.338667 0 0 0-124.032 204.458666c0 122.325333 95.957333 221.653333 216.618667 228.778667l-26.410667 43.52a275.157333 275.157333 0 0 1-235.477333-272.298667c0-127.36 87.168-235.477333 206.165333-267.306666z m109.781334-5.034667a275.157333 275.157333 0 0 1 235.477333 272.341333c0 129.450667-87.594667 235.904-206.165333 267.306667l36.864-62.848a231.338667 231.338667 0 0 0 124.032-204.458667c0-122.368-95.957333-221.653333-214.528-228.778666z" fill="#FF6A00" p-id="2375"></path></svg>