<?xml version="1.0" standalone="no"?><!DOCTYPE svg PUBLIC "-//W3C//DTD SVG 1.1//EN" "http://www.w3.org/Graphics/SVG/1.1/DTD/svg11.dtd"><svg t="1753002533237" class="icon" viewBox="0 0 1024 1024" version="1.1" xmlns="http://www.w3.org/2000/svg" p-id="76541" xmlns:xlink="http://www.w3.org/1999/xlink" width="200" height="200"><path d="M512.6 942.8l-8.2-3.1c-1.3-0.4-2.6-0.9-3.8-1.5-19.5-7.7-130.9-54.9-228.9-162.2-59.8-65.5-102.6-140.4-127-222.6-30.3-101.7-32.4-214.7-6.3-335.8l0.7-3.1 1.3-2.8c4.2-8.8 26.2-53.7 50.7-73.9l4.3-3.5 5.3-1.6c8.2-2.4 201.9-58.9 311.7-50.9 109.8-8 303.4 48.4 311.7 50.9l5.3 1.6 4.3 3.5c24.5 20.2 46.5 65.1 50.7 73.9l1.3 2.8 0.7 3.1c26.1 121 23.2 234.4-8.5 336.9-25.5 82.3-69.4 157.6-130.5 223.8C643.6 890.4 527.2 937 522.3 939l-9.7 3.8zM190.4 232.2c-42.7 202-2 372.7 121.1 507.4 80 87.6 171.2 132 200.6 144.9 28.9-13.3 118-58.5 196.7-144.3 125.4-136.6 167.5-307.5 125.2-508-7.7-15.6-21-38.3-31.4-49.2-33.5-9.4-198.8-54.3-288.3-47l-2.2 0.2-2.1-0.2c-89.5-7.3-254.7 37.5-288.3 47-10.3 10.9-23.6 33.5-31.3 49.2z" fill="#d76b20" p-id="76542"></path><path d="M511.6 679.7l-17.3 46.6-0.6 68.6h33.4L527 726z" fill="#d76b20" p-id="76543"></path><path d="M637.9 487.1s13.8-115.7-124.8-255.7v-2.3c-0.4 0.4-0.7 0.8-1.1 1.1-0.4-0.4-0.7-0.8-1.1-1.1v2.3c-138.6 140-124.8 255.7-124.8 255.7-11.2 115.6 55.7 194.4 96.7 231.2l29.1-71 27.2 72.9c40.7-35.9 110.2-115.4 98.8-233.1z" fill="#d76b20" p-id="76544"></path></svg>