<?xml version="1.0" standalone="no"?><!DOCTYPE svg PUBLIC "-//W3C//DTD SVG 1.1//EN" "http://www.w3.org/Graphics/SVG/1.1/DTD/svg11.dtd"><svg t="1752995187249" class="icon" viewBox="0 0 1024 1024" version="1.1" xmlns="http://www.w3.org/2000/svg" p-id="14986" xmlns:xlink="http://www.w3.org/1999/xlink" width="200" height="200"><path d="M924.566 844.28c13.004 10.266 15.224 29.13 4.957 42.135-10.164 12.874-28.755 15.178-41.744 5.261l-0.392-0.304-247-195c-13.004-10.266-15.223-29.131-4.957-42.136 10.164-12.874 28.755-15.178 41.744-5.261l0.392 0.304 247 195z" fill="#48EBE9" p-id="14987"></path><path d="M611.74 166.002l-139.828 93.366-156.182-62.254a80 80 0 0 0-51.313-2.69l-1.27 0.37c-41.75 12.494-65.902 56.223-54.042 98.325l45.588 161.834-107.47 129.302a80 80 0 0 0-18.415 47.97l-0.041 1.323c-1.018 43.566 33.107 80.05 76.813 81.78l168.002 6.652 89.762 142.168a80 80 0 0 0 39.932 32.337l1.245 0.448c41.12 14.431 86.363-6.75 101.515-47.782l58.242-157.724 162.947-41.436a80 80 0 0 0 43.094-27.986l0.811-1.045c26.431-34.648 20.268-84.221-14.074-111.312L725.05 405.517l10.945-167.776a80 80 0 0 0-13.3-49.633c-24.534-36.744-74.211-46.641-110.956-22.106z m61.057 55.425a20 20 0 0 1 3.325 12.408L664.151 417.35a30 30 0 0 0 11.356 25.507l144.389 113.899c8.672 6.84 10.156 19.417 3.315 28.089a20 20 0 0 1-10.773 6.996l-178.232 45.324a30 30 0 0 0-20.75 18.683l-63.705 172.518c-3.827 10.362-15.328 15.66-25.69 11.834a20 20 0 0 1-9.983-8.084l-98.183-155.504a30 30 0 0 0-24.18-13.96l-183.76-7.277c-11.038-0.437-19.63-9.739-19.194-20.776a20 20 0 0 1 4.604-11.992l117.552-141.43a30 30 0 0 0 5.805-27.31L266.858 276.85c-2.995-10.632 3.196-21.678 13.828-24.673a20 20 0 0 1 12.828 0.672l170.834 68.095a30 30 0 0 0 27.767-2.919L645.058 215.9c9.086-6.067 21.336-3.712 27.537 5.23l0.202 0.297z" fill="#4633FF" p-id="14988"></path></svg>