<?xml version="1.0" standalone="no"?><!DOCTYPE svg PUBLIC "-//W3C//DTD SVG 1.1//EN" "http://www.w3.org/Graphics/SVG/1.1/DTD/svg11.dtd"><svg t="1752995906656" class="icon" viewBox="0 0 1024 1024" version="1.1" xmlns="http://www.w3.org/2000/svg" p-id="21925" xmlns:xlink="http://www.w3.org/1999/xlink" width="200" height="200"><path d="M11.946868 512.06368a500.010146 500.010146 0 1 0 1000.148291 0C1012.052492 235.839968 788.159392 11.925534 511.978347 11.925534S11.946868 235.839968 11.946868 512.06368z" fill="#F2CF3D" p-id="21926"></path><path d="M511.99968 1023.999147a508.586137 508.586137 0 0 1-199.253126-40.277292 510.015469 510.015469 0 0 1-162.75183-109.738552A510.719468 510.719468 0 0 1 0.000213 511.957013c0-69.119928 13.589319-136.106525 40.277292-199.167792a510.079469 510.079469 0 0 1 109.717219-162.773164A510.634135 510.634135 0 0 1 511.99968 0.000213c69.098595 0 136.170525 13.589319 199.253126 40.277292a510.015469 510.015469 0 0 1 162.75183 109.738552A510.719468 510.719468 0 0 1 1023.999147 512.042347c0 69.119928-13.589319 136.213191-40.277292 199.295792a510.079469 510.079469 0 0 1-109.717219 162.773164 510.634135 510.634135 0 0 1-162.773164 109.717219A511.018134 511.018134 0 0 1 511.99968 1023.999147z m0-1000.254958c-65.919931 0-129.919865 12.863987-190.037135 38.39996a485.546161 485.546161 0 0 0-155.306505 104.639891 486.399493 486.399493 0 0 0-104.639891 155.221171 484.522162 484.522162 0 0 0-38.39996 190.058469c0 65.919931 12.88532 129.919865 38.39996 190.058469a486.399493 486.399493 0 0 0 104.639891 155.199838 486.356827 486.356827 0 0 0 155.199838 104.661224 484.351495 484.351495 0 0 0 190.015802 38.39996c65.919931 0 129.919865-12.88532 190.037136-38.39996a486.356827 486.356827 0 0 0 155.199838-104.661224 486.399493 486.399493 0 0 0 104.639891-155.199838 484.522162 484.522162 0 0 0 38.39996-190.079802c0-65.898598-12.88532-129.919865-38.39996-190.037136a486.399493 486.399493 0 0 0-104.639891-155.221171 486.356827 486.356827 0 0 0-155.199838-104.661225A483.370163 483.370163 0 0 0 511.99968 23.722855z" fill="#231815" p-id="21927"></path><path d="M51.968159 471.893055c0 254.101069 205.973119 460.095521 460.031521 460.095521 254.079735 0 460.031521-205.994452 460.031521-460.095521C972.031201 217.81332 766.058082 11.818868 511.99968 11.818868 257.919945 11.818868 51.968159 217.791986 51.968159 471.893055z" fill="#FFE20D" p-id="21928"></path><path d="M511.99968 1023.999147a508.586137 508.586137 0 0 1-199.253126-40.277292 510.015469 510.015469 0 0 1-162.75183-109.738552A510.719468 510.719468 0 0 1 0.000213 511.957013c0-69.119928 13.589319-136.106525 40.277292-199.167792a510.079469 510.079469 0 0 1 109.717219-162.773164A510.634135 510.634135 0 0 1 511.99968 0.000213c69.098595 0 136.170525 13.589319 199.253126 40.277292a510.015469 510.015469 0 0 1 162.75183 109.738552A510.719468 510.719468 0 0 1 1023.999147 512.042347c0 69.119928-13.589319 136.213191-40.277292 199.295792a510.079469 510.079469 0 0 1-109.717219 162.773164 510.634135 510.634135 0 0 1-162.773164 109.717219A511.018134 511.018134 0 0 1 511.99968 1023.999147z m0-1000.254958c-65.919931 0-129.919865 12.863987-190.037135 38.39996a485.546161 485.546161 0 0 0-155.306505 104.639891 486.399493 486.399493 0 0 0-104.639891 155.221171 484.522162 484.522162 0 0 0-38.39996 190.058469c0 65.919931 12.88532 129.919865 38.39996 190.058469a486.399493 486.399493 0 0 0 104.639891 155.199838 486.356827 486.356827 0 0 0 155.199838 104.661224 484.351495 484.351495 0 0 0 190.015802 38.39996c65.919931 0 129.919865-12.88532 190.037136-38.39996a486.356827 486.356827 0 0 0 155.199838-104.661224 486.399493 486.399493 0 0 0 104.639891-155.199838 484.522162 484.522162 0 0 0 38.39996-190.079802c0-65.898598-12.88532-129.919865-38.39996-190.037136a486.399493 486.399493 0 0 0-104.639891-155.221171 486.356827 486.356827 0 0 0-155.199838-104.661225A483.370163 483.370163 0 0 0 511.99968 23.722855z" fill="#231815" p-id="21929"></path><path d="M353.151845 132.181409c0 18.346648 30.271968 35.327963 79.423918 44.501287 49.151949 9.173324 109.695886 9.173324 158.847834 0 49.151949-9.173324 79.423917-26.154639 79.423918-44.501287 0-18.346648-30.271968-35.327963-79.423918-44.501287-49.151949-9.173324-109.695886-9.173324-158.847834 0-49.151949 9.173324-79.423917 26.133306-79.423918 44.501287z" fill="#FFF0B3" p-id="21930"></path><path d="M511.99968 711.466139c-80.895916 0-156.607837-9.59999-221.695769-26.367973-23.487976-6.015994-45.695952 13.951985-40.618624 36.863962 25.749307 116.949212 133.461194 204.586454 262.442393 204.586454 128.959866 0 236.565087-87.637242 262.186393-204.458454 5.077328-22.933309-17.237315-42.879955-40.618624-36.863962-65.194599 16.639983-140.90652 26.239973-221.695769 26.239973z" fill="#FFA6D7" p-id="21931"></path><path d="M511.99968 938.473902c-64.490599 0-127.445201-21.610644-177.279815-60.949269-49.258615-38.869293-83.49858-93.205236-96.725233-152.853175a42.111956 42.111956 0 0 1 12.159987-39.573292 45.653286 45.653286 0 0 1 42.986622-11.327988c66.133264 17.002649 141.866519 25.983973 218.858439 25.983973 77.013253 0 152.703841-8.959991 218.858439-25.983973a45.055953 45.055953 0 0 1 42.986622 11.327988c10.751989 10.410656 15.359984 25.173307 12.159987 39.573292-13.098653 59.647938-47.466617 113.983881-96.725233 152.853175-49.834615 39.210626-112.789216 60.94927-177.279815 60.949269zM281.685253 695.850155c-5.546661 0-10.986655 2.133331-15.103984 6.143994a18.282648 18.282648 0 0 0-5.546661 17.493315c11.903988 54.335943 43.327955 103.935892 88.213242 139.370521 45.695952 36.053296 103.466559 55.893275 162.62383 55.893275 59.178605 0 116.927878-19.839979 162.645164-55.893275 45.013286-35.413296 76.287921-85.034578 88.234575-139.370521a18.282648 18.282648 0 0 0-5.546661-17.493315 21.759977 21.759977 0 0 0-20.693312-5.418661c-67.903929 17.471982-145.621182 26.666639-224.511766 26.666639-79.018584 0-156.607837-9.194657-224.639766-26.666639a24.021308 24.021308 0 0 0-5.674661-0.725333z" fill="#231815" p-id="21932"></path><path d="M684.564834 865.961978A273.173049 273.173049 0 0 0 511.99968 805.375374a273.173049 273.173049 0 0 0-172.565154 60.586604A273.173049 273.173049 0 0 0 511.99968 926.548582c65.791931 0 125.909202-22.80531 172.565154-60.586604z" fill="#FF66C1" p-id="21933"></path><path d="M511.99968 938.473902c-65.791931 0-129.685198-22.442643-179.989146-63.317267a12.074654 12.074654 0 0 1-4.373329-9.194657c0-3.562663 1.642665-6.975993 4.373329-9.21599A286.655701 286.655701 0 0 1 511.99968 793.42872c65.791931 0 129.685198 22.442643 179.989146 63.317268a12.074654 12.074654 0 0 1 4.373329 9.21599 12.074654 12.074654 0 0 1-4.373329 9.194657A286.911701 286.911701 0 0 1 511.99968 938.473902z m-153.173174-72.533257a263.679725 263.679725 0 0 0 153.045174 48.789282c55.167943 0 109.01322-17.237315 153.087841-48.767949a263.679725 263.679725 0 0 0-153.087841-48.789283c-55.146609 0-108.88522 17.237315-153.066507 48.789283z" fill="#231815" p-id="21934"></path><path d="M178.816027 636.095551c0 20.223979 26.495972 36.607962 59.178605 36.607962s59.157272-16.383983 59.157272-36.607962-26.474639-36.629295-59.157272-36.629295-59.178605 16.405316-59.178605 36.629295zM726.826123 636.095551c0 20.223979 26.495972 36.607962 59.178605 36.607962s59.178605-16.383983 59.178605-36.607962-26.495972-36.629295-59.178605-36.629295-59.157272 16.405316-59.157272 36.629295z" fill="#FFA178" p-id="21935"></path><path d="M565.140958 917.055258v57.365274c0 12.62932 14.122652 36.714628 49.471948 29.887969 35.349297-6.82666 43.925288-27.839971 43.925288-44.245288v-50.986613l37.823961-69.375928-131.199864 77.354586z" fill="#16CEF9" p-id="21936"></path><path d="M667.668851 911.359264l52.522612-96.2559-164.181162 96.767899v62.549269c0 24.319975 25.087974 45.631952 60.351937 38.826626l4.074662-0.874666c31.999967-7.509326 47.231951-27.477305 47.231951-52.309279V911.359264z m-93.397236 10.879989l98.282564-57.941273-23.167975 42.453289v53.311944c0 17.279982-10.453322 30.293302-36.522629 35.327963l-3.199997 0.512c-21.930644 2.943997-35.37063-9.023991-35.37063-21.482644v-52.202613z" fill="#231815" p-id="21937"></path><path d="M346.303853 45.717499a141.16252 141.16252 0 0 0-87.893242 73.941256 141.503853 141.503853 0 0 0-113.727882-15.46665 142.207852 142.207852 0 0 0-97.066565 176.106483c21.823977 75.477255 280.021042 217.343774 317.098336 206.591785 37.098628-10.730655 179.647813-268.586387 157.802502-344.084975-21.97331-75.477255-100.863895-118.954543-176.213149-97.087899z" fill="#F97B67" p-id="21938"></path><path d="M360.106505 499.30636c-8.959991 0-26.453306-3.071997-62.357268-18.773314-30.933301-13.482653-67.797263-32.853299-103.573226-54.591943-42.645289-25.749307-143.274517-91.306572-158.143835-142.335852C12.373534 201.984003 59.648151 116.480092 141.1414 92.842783a154.069173 154.069173 0 0 1 112.426549 10.751989 154.197173 154.197173 0 0 1 89.42924-69.226594 152.447841 152.447841 0 0 1 117.162545 13.119986 153.002507 153.002507 0 0 1 73.57859 92.138571c14.762651 51.135947-35.327963 160.277166-57.642607 204.799786-18.666647 37.461294-39.466626 73.493257-58.453272 101.482561-32.127967 47.253284-45.482619 51.15728-49.855948 52.330612-1.279999 0.362666-3.647996 1.066666-7.679992 1.066666zM183.680022 110.336098a128.639866 128.639866 0 0 0-35.903963 5.077328c-69.098595 19.946646-109.01322 92.479904-89.04524 161.578499 8.490658 29.290636 64.831932 78.549252 146.922513 128.405199 34.709297 21.141311 70.506593 40.042625 100.629229 53.162612 44.159954 19.370646 54.911943 17.002649 55.039943 17.002649 0.106667 0 10.389323-3.775996 37.439961-43.711955 18.410647-27.157305 38.506627-62.250602 56.682607-98.623897 42.879955-85.994577 64.127933-157.695836 55.637276-186.986472A129.301199 129.301199 0 0 0 448.703746 68.266809a129.770531 129.770531 0 0 0-99.22123-11.093322l-3.306663-11.349321 3.306663 11.349321a131.17853 131.17853 0 0 0-80.661249 67.797263l-5.674661 11.583988-11.093322-6.741327a129.621198 129.621198 0 0 0-68.394595-19.477313z" fill="#231815" p-id="21939"></path><path d="M389.055808 193.706678a141.16252 141.16252 0 0 0-87.893242 73.96259 141.503853 141.503853 0 0 0-113.706548-15.487984 141.653186 141.653186 0 0 0-93.674569 87.295909c81.599915 72.895924 242.239748 155.818504 270.933051 147.41318 28.714637-8.255991 120.234541-164.181162 150.357177-269.43972a142.655851 142.655851 0 0 0-126.015869-23.722641z" fill="#FC4427" p-id="21940"></path><path d="M360.106505 499.30636c-8.959991 0-26.453306-3.071997-62.357268-18.773314-30.933301-13.482653-67.797263-32.853299-103.573226-54.591943-42.645289-25.749307-143.274517-91.306572-158.143835-142.335852C12.373534 201.984003 59.648151 116.480092 141.1414 92.842783a154.069173 154.069173 0 0 1 112.426549 10.751989 154.197173 154.197173 0 0 1 89.42924-69.226594 152.447841 152.447841 0 0 1 117.162545 13.119986 153.002507 153.002507 0 0 1 73.57859 92.138571c14.762651 51.135947-35.327963 160.277166-57.642607 204.799786-18.666647 37.461294-39.466626 73.493257-58.453272 101.482561-32.127967 47.253284-45.482619 51.15728-49.855948 52.330612-1.279999 0.362666-3.647996 1.066666-7.679992 1.066666zM183.680022 110.336098a128.639866 128.639866 0 0 0-35.903963 5.077328c-69.098595 19.946646-109.01322 92.479904-89.04524 161.578499 8.490658 29.290636 64.831932 78.549252 146.922513 128.405199 34.709297 21.141311 70.506593 40.042625 100.629229 53.162612 44.159954 19.370646 54.911943 17.002649 55.039943 17.002649 0.106667 0 10.389323-3.775996 37.439961-43.711955 18.410647-27.157305 38.506627-62.250602 56.682607-98.623897 42.879955-85.994577 64.127933-157.695836 55.637276-186.986472A129.301199 129.301199 0 0 0 448.703746 68.266809a129.770531 129.770531 0 0 0-99.22123-11.093322l-3.306663-11.349321 3.306663 11.349321a131.17853 131.17853 0 0 0-80.661249 67.797263l-5.674661 11.583988-11.093322-6.741327a129.621198 129.621198 0 0 0-68.394595-19.477313z" fill="#231815" p-id="21941"></path><path d="M795.818051 285.375916a75.775921 75.775921 0 0 0-61.546603-5.311994 76.437254 76.437254 0 0 0-141.375852-19.13598c-20.415979 36.970628 23.871975 189.22647 42.047956 199.274459 18.197314 10.026656 170.559822-33.791965 190.997134-70.86926a76.586587 76.586587 0 0 0-30.122635-103.957225z" fill="#F97B67" p-id="21942"></path><path d="M644.052876 473.429054c-8.042658 0-12.159987-1.407999-14.890651-2.943997-4.842662-2.730664-11.818654-9.21599-22.442644-36.159963a497.855481 497.855481 0 0 1-18.901313-60.82127c-8.149325-33.066632-19.605313-92.501237-5.418661-118.250543a87.253242 87.253242 0 0 1 52.778611-42.154623 87.743909 87.743909 0 0 1 67.19993 7.445326 88.703908 88.703908 0 0 1 39.573292 45.226619 88.149242 88.149242 0 0 1 59.413272 9.34399 87.253242 87.253242 0 0 1 42.154623 52.799945 88.298575 88.298575 0 0 1-7.423993 67.19993c-14.186652 25.749307-70.506593 47.722617-102.869226 58.602606a494.762151 494.762151 0 0 1-61.546602 16.533316c-12.394654 2.239998-21.247978 3.199997-27.626638 3.199997z m-3.306663-23.743976c8.021325 1.301332 42.282623-3.882663 88.319908-19.605313 55.295942-18.901314 81.151915-36.842628 86.463909-46.421285a63.957267 63.957267 0 0 0 5.439995-49.258615 64.618599 64.618599 0 0 0-83.029247-43.221288l-12.287987 4.117329-3.071997-12.62932c-4.245329-17.706648-15.829317-32.853299-31.6373-41.578624a63.957267 63.957267 0 0 0-49.279949-5.439994 64.597266 64.597266 0 0 0-38.71996 30.933301c-5.333328 9.706657-6.741326 41.130624 6.847993 97.941231 11.690654 47.253284 25.621307 79.018584 30.933301 85.162578z" fill="#231815" p-id="21943"></path><path d="M755.775426 357.909174a75.775921 75.775921 0 0 0-61.525269-5.333328 76.202587 76.202587 0 0 0-37.439961-49.237282 76.629254 76.629254 0 0 0-68.863928-2.474664c3.306663 58.815939 32.938632 151.423842 46.997284 159.231834 14.079985 7.786659 108.202554-16.661316 159.679834-45.247953a76.202587 76.202587 0 0 0-38.84796-56.938607z" fill="#FC4427" p-id="21944"></path><path d="M644.052876 473.429054c-8.042658 0-12.159987-1.407999-14.890651-2.943997-4.842662-2.730664-11.818654-9.21599-22.442644-36.159963a497.855481 497.855481 0 0 1-18.901313-60.82127c-8.149325-33.066632-19.605313-92.501237-5.418661-118.250543a87.253242 87.253242 0 0 1 52.778611-42.154623 87.743909 87.743909 0 0 1 67.19993 7.445326 88.703908 88.703908 0 0 1 39.573292 45.226619 88.149242 88.149242 0 0 1 59.413272 9.34399 87.253242 87.253242 0 0 1 42.154623 52.799945 88.298575 88.298575 0 0 1-7.423993 67.19993c-14.186652 25.749307-70.506593 47.722617-102.869226 58.602606a494.762151 494.762151 0 0 1-61.546602 16.533316c-12.394654 2.239998-21.247978 3.199997-27.626638 3.199997z m-3.306663-23.743976c8.021325 1.301332 42.282623-3.882663 88.319908-19.605313 55.295942-18.901314 81.151915-36.842628 86.463909-46.421285a63.957267 63.957267 0 0 0 5.439995-49.258615 64.618599 64.618599 0 0 0-83.029247-43.221288l-12.287987 4.117329-3.071997-12.62932c-4.245329-17.706648-15.829317-32.853299-31.6373-41.578624a63.957267 63.957267 0 0 0-49.279949-5.439994 64.597266 64.597266 0 0 0-38.71996 30.933301c-5.333328 9.706657-6.741326 41.130624 6.847993 97.941231 11.690654 47.253284 25.621307 79.018584 30.933301 85.162578z" fill="#231815" p-id="21945"></path></svg>