<?xml version="1.0" standalone="no"?><!DOCTYPE svg PUBLIC "-//W3C//DTD SVG 1.1//EN" "http://www.w3.org/Graphics/SVG/1.1/DTD/svg11.dtd"><svg t="1752744696231" class="icon" viewBox="0 0 1024 1024" version="1.1" xmlns="http://www.w3.org/2000/svg" p-id="2062" xmlns:xlink="http://www.w3.org/1999/xlink" width="200" height="200"><path d="M470.34368 652.32896c5.07904 18.75968-3.03104 42.92608-17.73568 57.63072l-79.17568 79.17568c-21.87264 21.87264-57.344 21.87264-79.17568 0l-59.392-59.392a55.99232 55.99232 0 0 1 0-79.17568l79.17568-79.17568c15.52384-15.52384 37.84704-23.3472 57.344-16.83456l61.44-62.34112a111.98464 111.98464 0 0 0-158.39232 0l-118.784 118.784a111.98464 111.98464 0 0 0 0 158.35136l99.00032 98.95936a111.98464 111.98464 0 0 0 158.39232 0l118.784-118.784a111.98464 111.98464 0 0 0 0-158.35136l-61.44 61.15328zM868.352 254.64832l-98.95936-98.95936a111.98464 111.98464 0 0 0-158.35136 0l-118.784 118.784a111.98464 111.98464 0 0 0 0 158.35136l62.34112-61.44c-6.47168-19.49696 1.31072-41.82016 16.7936-57.344l79.21664-79.17568a55.99232 55.99232 0 0 1 79.17568 0l59.392 59.392c21.87264 21.87264 21.87264 57.344 0 79.17568l-79.17568 79.17568c-14.7456 14.7456-38.912 22.85568-57.63072 17.73568l-61.15328 61.44a111.98464 111.98464 0 0 0 158.35136 0l118.784-118.784a111.98464 111.98464 0 0 0 0-158.35136zM383.3856 640.65536c16.384 16.384 43.008 16.384 59.392 0l197.91872-197.91872a41.984 41.984 0 1 0-59.392-59.392L383.3856 581.2224c-16.384 16.384-16.384 43.008 0 59.392z" p-id="2063"></path></svg>