<?xml version="1.0" standalone="no"?><!DOCTYPE svg PUBLIC "-//W3C//DTD SVG 1.1//EN" "http://www.w3.org/Graphics/SVG/1.1/DTD/svg11.dtd"><svg t="1752744042560" class="icon" viewBox="0 0 1024 1024" version="1.1" xmlns="http://www.w3.org/2000/svg" p-id="1702" xmlns:xlink="http://www.w3.org/1999/xlink" width="200" height="200"><path d="M308.224 446.72a32 32 0 0 1 45.248 0L460.16 553.344a32 32 0 0 1 0 45.312L353.472 705.28a32 32 0 1 1-45.248-45.248L392.32 576 308.224 491.968a32 32 0 0 1 0-45.248zM490.88 682.688a32 32 0 0 1 32-32h170.688a32 32 0 0 1 0 64H522.88a32 32 0 0 1-32-32z" p-id="1703"></path><path d="M223.616 87.04a32 32 0 0 1 25.28-12.352h526.208a32 32 0 0 1 25.344 12.416l108.096 139.712a74.368 74.368 0 0 1 19.456 50.496v576a96 96 0 0 1-96 96H192a96 96 0 0 1-96-96v-576c0-18.112 6.4-34.688 17.152-47.616 0.64-1.024 1.28-1.92 2.048-2.88L223.616 87.04z m535.808 51.648H264.576l-49.664 64h593.984l-49.472-64z m-588.8 128a10.688 10.688 0 0 0-10.624 10.624v576a32 32 0 0 0 32 32h640a32 32 0 0 0 32-32v-576a10.688 10.688 0 0 0-10.688-10.624H170.688z" p-id="1704"></path></svg>